<svg xmlns="http://www.w3.org/2000/svg" width="1200" height="630" viewBox="0 0 1200 630">
  <defs>
    <linearGradient id="bg" x1="0" x2="1" y1="0" y2="1">
      <stop offset="0" stop-color="#f8fafc"/>
      <stop offset="1" stop-color="#eef2ff"/>
    </linearGradient>
    <linearGradient id="map" x1="0" x2="1" y1="0" y2="1">
      <stop offset="0" stop-color="#2b5ea8"/>
      <stop offset="1" stop-color="#1f4f8e"/>
    </linearGradient>
  </defs>
  <rect width="1200" height="630" fill="url(#bg)"/>
  <rect x="140" y="120" width="920" height="360" rx="26" fill="#ffffff" stroke="#e2e8f0" stroke-width="2"/>
  <rect x="180" y="160" width="840" height="280" rx="22" fill="url(#map)"/>
  <path d="M240 360c80-120 150-80 220-160s160-40 240-90 160-10 220-80" fill="none" stroke="#f97316" stroke-width="10" stroke-linecap="round"/>
  <circle cx="240" cy="360" r="10" fill="#f59e0b"/>
  <circle cx="920" cy="110" r="10" fill="#f59e0b"/>
  <rect x="320" y="70" width="160" height="44" rx="16" fill="#ffffff" stroke="#e2e8f0" stroke-width="2"/>
  <rect x="500" y="70" width="160" height="44" rx="16" fill="#ffffff" stroke="#e2e8f0" stroke-width="2"/>
  <rect x="680" y="70" width="160" height="44" rx="16" fill="#ffffff" stroke="#e2e8f0" stroke-width="2"/>
  <rect x="860" y="70" width="160" height="44" rx="16" fill="#ffffff" stroke="#e2e8f0" stroke-width="2"/>
  <path d="M360 520c60-30 120-10 180-40s120-40 180-20 120-10 180-40" fill="none" stroke="#f97316" stroke-width="6" stroke-linecap="round"/>
</svg>
